<mxfile host="app.diagrams.net" modified="2024-02-29T17:25:41.376Z" agent="Mozilla/5.0 (Windows NT 10.0; Win64; x64) AppleWebKit/537.36 (KHTML, like Gecko) Chrome/122.0.0.0 Safari/537.36" etag="A5Gv17EF5y4pz4RoMfEK" version="23.1.8" type="github">
  <diagram name="Page-1" id="44-TJ2VjL3WcBLJgvvHb">
    <mxGraphModel dx="794" dy="412" grid="1" gridSize="10" guides="1" tooltips="1" connect="1" arrows="1" fold="1" page="1" pageScale="1" pageWidth="850" pageHeight="1100" math="0" shadow="0">
      <root>
        <mxCell id="0" />
        <mxCell id="1" parent="0" />
        <mxCell id="4dPitYSo7VQBLm2kUd2n-1" value="" style="image;aspect=fixed;html=1;points=[];align=center;fontSize=12;image=img/lib/azure2/general/Resource_Groups.svg;" vertex="1" parent="1">
          <mxGeometry x="720" y="399" width="38" height="35.76" as="geometry" />
        </mxCell>
        <mxCell id="4dPitYSo7VQBLm2kUd2n-2" value="" style="fontStyle=0;verticalAlign=top;align=center;spacingTop=-2;fillColor=none;rounded=0;whiteSpace=wrap;html=1;strokeColor=#c8def4;strokeWidth=2;dashed=1;container=1;collapsible=0;expand=0;recursiveResize=0;" vertex="1" parent="1">
          <mxGeometry x="230" y="110" width="510" height="290" as="geometry" />
        </mxCell>
        <mxCell id="4dPitYSo7VQBLm2kUd2n-5" value="" style="fontStyle=0;verticalAlign=top;align=center;spacingTop=-2;fillColor=none;rounded=0;whiteSpace=wrap;html=1;strokeColor=#99CCFF;strokeWidth=2;dashed=1;container=1;collapsible=0;expand=0;recursiveResize=0;dashPattern=1 2;" vertex="1" parent="4dPitYSo7VQBLm2kUd2n-2">
          <mxGeometry x="436" y="20" width="67" height="160" as="geometry" />
        </mxCell>
        <mxCell id="4dPitYSo7VQBLm2kUd2n-21" value="&lt;font style=&quot;font-size: 10px;&quot;&gt;Azure Monitor&lt;/font&gt;" style="image;aspect=fixed;html=1;points=[];align=center;fontSize=12;image=img/lib/azure2/management_governance/Monitor.svg;" vertex="1" parent="4dPitYSo7VQBLm2kUd2n-5">
          <mxGeometry x="17" y="16" width="30" height="30" as="geometry" />
        </mxCell>
        <mxCell id="4dPitYSo7VQBLm2kUd2n-22" value="&lt;font style=&quot;font-size: 10px;&quot;&gt;Log Analytics&lt;/font&gt;" style="image;aspect=fixed;html=1;points=[];align=center;fontSize=12;image=img/lib/azure2/analytics/Log_Analytics_Workspaces.svg;" vertex="1" parent="4dPitYSo7VQBLm2kUd2n-5">
          <mxGeometry x="20" y="84" width="35" height="35" as="geometry" />
        </mxCell>
        <mxCell id="4dPitYSo7VQBLm2kUd2n-30" style="edgeStyle=orthogonalEdgeStyle;rounded=0;orthogonalLoop=1;jettySize=auto;html=1;entryX=0;entryY=0.5;entryDx=0;entryDy=0;dashed=1;fillColor=#e1d5e7;strokeColor=#9673a6;" edge="1" parent="4dPitYSo7VQBLm2kUd2n-2" source="4dPitYSo7VQBLm2kUd2n-6" target="4dPitYSo7VQBLm2kUd2n-5">
          <mxGeometry relative="1" as="geometry" />
        </mxCell>
        <mxCell id="4dPitYSo7VQBLm2kUd2n-46" value="&lt;font style=&quot;font-size: 10px;&quot;&gt;Metric Data&lt;/font&gt;" style="edgeLabel;html=1;align=center;verticalAlign=middle;resizable=0;points=[];" vertex="1" connectable="0" parent="4dPitYSo7VQBLm2kUd2n-30">
          <mxGeometry x="-0.5455" y="12" relative="1" as="geometry">
            <mxPoint x="16" y="-1" as="offset" />
          </mxGeometry>
        </mxCell>
        <mxCell id="4dPitYSo7VQBLm2kUd2n-47" value="&lt;font style=&quot;font-size: 10px;&quot;&gt;Audit and&lt;br&gt;&amp;nbsp;Diagnostic&lt;br&gt;Log&lt;/font&gt;" style="edgeLabel;html=1;align=center;verticalAlign=middle;resizable=0;points=[];" vertex="1" connectable="0" parent="4dPitYSo7VQBLm2kUd2n-30">
          <mxGeometry x="-0.5758" y="-7" relative="1" as="geometry">
            <mxPoint x="15" y="16" as="offset" />
          </mxGeometry>
        </mxCell>
        <mxCell id="4dPitYSo7VQBLm2kUd2n-6" value="" style="fontStyle=0;verticalAlign=top;align=center;spacingTop=-2;fillColor=none;rounded=0;whiteSpace=wrap;html=1;strokeColor=#99CCFF;strokeWidth=2;dashed=1;container=1;collapsible=0;expand=0;recursiveResize=0;dashPattern=1 2;" vertex="1" parent="4dPitYSo7VQBLm2kUd2n-2">
          <mxGeometry x="296" y="20" width="74" height="160" as="geometry" />
        </mxCell>
        <mxCell id="4dPitYSo7VQBLm2kUd2n-10" value="&lt;font style=&quot;font-size: 10px;&quot;&gt;Logical Server&lt;/font&gt;" style="image;aspect=fixed;html=1;points=[];align=center;fontSize=12;image=img/lib/azure2/databases/SQL_Server.svg;" vertex="1" parent="4dPitYSo7VQBLm2kUd2n-6">
          <mxGeometry x="21" y="16" width="38" height="38" as="geometry" />
        </mxCell>
        <mxCell id="4dPitYSo7VQBLm2kUd2n-11" value="&lt;font style=&quot;font-size: 10px;&quot;&gt;Database&lt;/font&gt;" style="image;aspect=fixed;html=1;points=[];align=center;fontSize=12;image=img/lib/azure2/databases/SQL_Database.svg;" vertex="1" parent="4dPitYSo7VQBLm2kUd2n-6">
          <mxGeometry x="20" y="84" width="30" height="40" as="geometry" />
        </mxCell>
        <mxCell id="4dPitYSo7VQBLm2kUd2n-7" value="" style="fontStyle=0;verticalAlign=top;align=center;spacingTop=-2;rounded=0;whiteSpace=wrap;html=1;strokeWidth=2;dashed=1;container=1;collapsible=0;expand=0;recursiveResize=0;dashPattern=1 2;strokeColor=#99CCFF;" vertex="1" parent="4dPitYSo7VQBLm2kUd2n-2">
          <mxGeometry x="80" y="20" width="160" height="160" as="geometry" />
        </mxCell>
        <mxCell id="4dPitYSo7VQBLm2kUd2n-8" value="&lt;font style=&quot;font-size: 10px;&quot;&gt;Azure App Service&lt;/font&gt;" style="image;aspect=fixed;html=1;points=[];align=center;fontSize=12;image=img/lib/azure2/app_services/App_Services.svg;" vertex="1" parent="4dPitYSo7VQBLm2kUd2n-7">
          <mxGeometry x="93" y="34" width="30" height="30" as="geometry" />
        </mxCell>
        <mxCell id="4dPitYSo7VQBLm2kUd2n-9" value="&lt;font style=&quot;font-size: 10px;&quot;&gt;App Service&lt;br&gt;&amp;nbsp;Plan&lt;/font&gt;" style="image;aspect=fixed;html=1;points=[];align=center;fontSize=12;image=img/lib/azure2/app_services/App_Service_Plans.svg;" vertex="1" parent="4dPitYSo7VQBLm2kUd2n-7">
          <mxGeometry x="14" y="5" width="30" height="30" as="geometry" />
        </mxCell>
        <mxCell id="4dPitYSo7VQBLm2kUd2n-13" value="" style="fontStyle=0;verticalAlign=top;align=center;spacingTop=-2;rounded=0;whiteSpace=wrap;html=1;strokeWidth=1;dashed=1;container=1;collapsible=0;expand=0;recursiveResize=0;dashPattern=1 2;strokeColor=#666666;fillColor=#f5f5f5;fontColor=#333333;" vertex="1" parent="4dPitYSo7VQBLm2kUd2n-7">
          <mxGeometry x="1" y="100" width="160" height="60" as="geometry" />
        </mxCell>
        <mxCell id="4dPitYSo7VQBLm2kUd2n-15" value="" style="image;aspect=fixed;html=1;points=[];align=center;fontSize=12;image=img/lib/azure2/preview/Web_Environment.svg;" vertex="1" parent="4dPitYSo7VQBLm2kUd2n-13">
          <mxGeometry x="94" y="7" width="26.18" height="27" as="geometry" />
        </mxCell>
        <mxCell id="4dPitYSo7VQBLm2kUd2n-37" value="" style="endArrow=classic;html=1;rounded=0;entryX=0.657;entryY=1.008;entryDx=0;entryDy=0;entryPerimeter=0;dashed=1;fillColor=#e1d5e7;strokeColor=#9673a6;" edge="1" parent="4dPitYSo7VQBLm2kUd2n-13" target="4dPitYSo7VQBLm2kUd2n-5">
          <mxGeometry width="50" height="50" relative="1" as="geometry">
            <mxPoint x="90" y="61" as="sourcePoint" />
            <mxPoint x="420" y="89" as="targetPoint" />
            <Array as="points">
              <mxPoint x="90" y="99" />
              <mxPoint x="400" y="99" />
            </Array>
          </mxGeometry>
        </mxCell>
        <mxCell id="4dPitYSo7VQBLm2kUd2n-48" value="&lt;font style=&quot;font-size: 11px;&quot;&gt;Production&lt;/font&gt;" style="text;strokeColor=none;align=center;fillColor=none;html=1;verticalAlign=middle;whiteSpace=wrap;rounded=0;" vertex="1" parent="4dPitYSo7VQBLm2kUd2n-13">
          <mxGeometry x="78" y="33" width="60" height="11" as="geometry" />
        </mxCell>
        <mxCell id="4dPitYSo7VQBLm2kUd2n-49" value="&lt;font style=&quot;font-size: 10px;&quot;&gt;Deployment Slot&lt;/font&gt;" style="text;strokeColor=none;align=center;fillColor=none;html=1;verticalAlign=middle;whiteSpace=wrap;rounded=0;" vertex="1" parent="4dPitYSo7VQBLm2kUd2n-13">
          <mxGeometry width="80" height="11" as="geometry" />
        </mxCell>
        <mxCell id="4dPitYSo7VQBLm2kUd2n-14" value="" style="image;aspect=fixed;html=1;points=[];align=center;fontSize=12;image=img/lib/azure2/security/Key_Vaults.svg;" vertex="1" parent="4dPitYSo7VQBLm2kUd2n-2">
          <mxGeometry x="34" y="18" width="30" height="30" as="geometry" />
        </mxCell>
        <mxCell id="4dPitYSo7VQBLm2kUd2n-16" value="" style="image;aspect=fixed;html=1;points=[];align=center;fontSize=12;image=img/lib/azure2/networking/Web_Application_Firewall_Policies_WAF.svg;" vertex="1" parent="4dPitYSo7VQBLm2kUd2n-2">
          <mxGeometry x="-48" y="94" width="33" height="33" as="geometry" />
        </mxCell>
        <mxCell id="4dPitYSo7VQBLm2kUd2n-19" value="&lt;font style=&quot;font-size: 10px;&quot;&gt;Blob Storage&lt;/font&gt;" style="verticalLabelPosition=bottom;html=1;verticalAlign=top;align=center;strokeColor=none;fillColor=#00BEF2;shape=mxgraph.azure.storage_blob;" vertex="1" parent="4dPitYSo7VQBLm2kUd2n-2">
          <mxGeometry x="446" y="230" width="40" height="30" as="geometry" />
        </mxCell>
        <mxCell id="4dPitYSo7VQBLm2kUd2n-26" value="" style="endArrow=classic;html=1;rounded=0;entryX=0.25;entryY=1;entryDx=0;entryDy=0;dashed=1;fillColor=#e1d5e7;strokeColor=#9673a6;" edge="1" parent="4dPitYSo7VQBLm2kUd2n-2">
          <mxGeometry width="50" height="50" relative="1" as="geometry">
            <mxPoint x="49.089820359281475" y="48" as="sourcePoint" />
            <mxPoint x="452.75" y="180" as="targetPoint" />
            <Array as="points">
              <mxPoint x="50" y="200" />
              <mxPoint x="453" y="200" />
            </Array>
          </mxGeometry>
        </mxCell>
        <mxCell id="4dPitYSo7VQBLm2kUd2n-29" value="" style="endArrow=classic;startArrow=classic;html=1;rounded=0;exitX=1;exitY=0.5;exitDx=0;exitDy=0;entryX=0;entryY=0.5;entryDx=0;entryDy=0;dashed=1;fillColor=#e1d5e7;strokeColor=#9673a6;" edge="1" parent="4dPitYSo7VQBLm2kUd2n-2" source="4dPitYSo7VQBLm2kUd2n-7" target="4dPitYSo7VQBLm2kUd2n-6">
          <mxGeometry width="50" height="50" relative="1" as="geometry">
            <mxPoint x="250" y="131" as="sourcePoint" />
            <mxPoint x="300" y="81" as="targetPoint" />
          </mxGeometry>
        </mxCell>
        <mxCell id="4dPitYSo7VQBLm2kUd2n-3" value="Resource Group" style="text;html=1;align=center;verticalAlign=middle;resizable=0;points=[];autosize=1;strokeColor=none;fillColor=none;" vertex="1" parent="1">
          <mxGeometry x="691" y="429" width="110" height="30" as="geometry" />
        </mxCell>
        <mxCell id="4dPitYSo7VQBLm2kUd2n-17" value="&lt;font style=&quot;font-size: 10px;&quot;&gt;Internet&lt;/font&gt;" style="outlineConnect=0;dashed=0;verticalLabelPosition=bottom;verticalAlign=top;align=center;html=1;shape=mxgraph.aws3.internet_3;fillColor=#D2D3D3;gradientColor=none;" vertex="1" parent="1">
          <mxGeometry x="89" y="205" width="30" height="20" as="geometry" />
        </mxCell>
        <mxCell id="4dPitYSo7VQBLm2kUd2n-18" value="&lt;font style=&quot;font-size: 10px;&quot;&gt;Azure Active Directory&lt;/font&gt;" style="image;aspect=fixed;html=1;points=[];align=center;fontSize=12;image=img/lib/azure2/identity/Azure_Active_Directory.svg;" vertex="1" parent="1">
          <mxGeometry x="86" y="115" width="38.28" height="35" as="geometry" />
        </mxCell>
        <mxCell id="4dPitYSo7VQBLm2kUd2n-20" value="&lt;font style=&quot;font-size: 10px;&quot;&gt;Azure DNS&lt;/font&gt;" style="image;aspect=fixed;html=1;points=[];align=center;fontSize=12;image=img/lib/azure2/networking/DNS_Zones.svg;" vertex="1" parent="1">
          <mxGeometry x="88.28" y="290" width="30" height="30" as="geometry" />
        </mxCell>
        <mxCell id="4dPitYSo7VQBLm2kUd2n-27" value="" style="endArrow=classic;html=1;rounded=0;entryX=0.444;entryY=1.038;entryDx=0;entryDy=0;entryPerimeter=0;dashed=1;fillColor=#e1d5e7;strokeColor=#9673a6;" edge="1" parent="1">
          <mxGeometry width="50" height="50" relative="1" as="geometry">
            <mxPoint x="105" y="206" as="sourcePoint" />
            <mxPoint x="104.99631999999997" y="151.33000000000004" as="targetPoint" />
            <Array as="points" />
          </mxGeometry>
        </mxCell>
        <mxCell id="4dPitYSo7VQBLm2kUd2n-28" value="" style="endArrow=classic;html=1;rounded=0;dashed=1;exitX=0.5;exitY=1;exitDx=0;exitDy=0;exitPerimeter=0;entryX=0.524;entryY=0.067;entryDx=0;entryDy=0;entryPerimeter=0;fillColor=#e1d5e7;strokeColor=#9673a6;" edge="1" parent="1" source="4dPitYSo7VQBLm2kUd2n-17" target="4dPitYSo7VQBLm2kUd2n-20">
          <mxGeometry width="50" height="50" relative="1" as="geometry">
            <mxPoint x="122" y="216" as="sourcePoint" />
            <mxPoint x="111" y="290" as="targetPoint" />
            <Array as="points" />
          </mxGeometry>
        </mxCell>
        <mxCell id="4dPitYSo7VQBLm2kUd2n-34" value="" style="endArrow=classic;html=1;rounded=0;fillColor=#e1d5e7;strokeColor=#9673a6;entryX=0.522;entryY=-0.049;entryDx=0;entryDy=0;entryPerimeter=0;" edge="1" parent="1" target="4dPitYSo7VQBLm2kUd2n-15">
          <mxGeometry width="50" height="50" relative="1" as="geometry">
            <mxPoint x="418" y="194" as="sourcePoint" />
            <mxPoint x="423.42539130434784" y="238" as="targetPoint" />
          </mxGeometry>
        </mxCell>
        <mxCell id="4dPitYSo7VQBLm2kUd2n-35" value="" style="endArrow=classic;startArrow=classic;html=1;rounded=0;fillColor=#e1d5e7;strokeColor=#9673a6;" edge="1" parent="1">
          <mxGeometry width="50" height="50" relative="1" as="geometry">
            <mxPoint x="126" y="220" as="sourcePoint" />
            <mxPoint x="180" y="220" as="targetPoint" />
          </mxGeometry>
        </mxCell>
        <mxCell id="4dPitYSo7VQBLm2kUd2n-36" value="" style="endArrow=classic;html=1;rounded=0;entryX=-0.021;entryY=0.56;entryDx=0;entryDy=0;entryPerimeter=0;fillColor=#e1d5e7;strokeColor=#9673a6;" edge="1" parent="1" target="4dPitYSo7VQBLm2kUd2n-7">
          <mxGeometry width="50" height="50" relative="1" as="geometry">
            <mxPoint x="210" y="220" as="sourcePoint" />
            <mxPoint x="260" y="170" as="targetPoint" />
          </mxGeometry>
        </mxCell>
        <mxCell id="4dPitYSo7VQBLm2kUd2n-58" value="&lt;font style=&quot;font-size: 11px;&quot;&gt;Web Application Firewall(WAF)&lt;/font&gt;" style="text;strokeColor=none;align=center;fillColor=none;html=1;verticalAlign=middle;whiteSpace=wrap;rounded=0;" vertex="1" parent="1">
          <mxGeometry x="168" y="243" width="60" height="29" as="geometry" />
        </mxCell>
      </root>
    </mxGraphModel>
  </diagram>
</mxfile>
